/vscmnt/brussel_pixiu_data/_data_brussel/112/vsc11236/PredSimResults/SUBJ06opt3D/expIG/worker_09.mot
version=1
nRows=10
nColumns=50
inDegrees=yes
endheader
                time	         pelvis_tilt	         pelvis_list	     pelvis_rotation	           pelvis_tx	           pelvis_ty	           pelvis_tz	       hip_flexion_r	     hip_adduction_r	      hip_rotation_r	        knee_angle_r	       ankle_angle_r	         mtp_angle_r	       hip_flexion_l	     hip_adduction_l	      hip_rotation_l	        knee_angle_l	       ankle_angle_l	         mtp_angle_l	    lumbar_extension	      lumbar_bending	     lumbar_rotation	 ercspn_r/activation	 intobl_r/activation	 extobl_r/activation	    abd_r/activation	    add_r/activation	hamstrings_r/activation	bifemsh_r/activation	glut_max_r/activation	iliopsoas_r/activation	rect_fem_r/activation	  vasti_r/activation	gastroc_r/activation	 soleus_r/activation	tib_ant_r/activation	 ercspn_l/activation	 intobl_l/activation	 extobl_l/activation	    abd_l/activation	    add_l/activation	hamstrings_l/activation	bifemsh_l/activation	glut_max_l/activation	iliopsoas_l/activation	rect_fem_l/activation	  vasti_l/activation	gastroc_l/activation	 soleus_l/activation	tib_ant_l/activation	
          0.54747915	         -7.18174661	          1.45932881	         -6.41429220	          0.76647081	          0.91920905	          0.01021327	        -12.20444467	         -1.27798693	         -3.21190300	        -10.13532730	          7.16235942	         36.40661280	         34.48071717	         -1.13160754	         -8.71438267	         -7.13952003	          1.42203290	          0.26162096	         -6.41883993	         -0.78297610	          8.76634190	          0.19410459	          0.00999999	          0.00999999	          0.06244661	          0.00999999	          0.01533429	          0.26397206	          0.01653466	          0.76649951	          0.01182492	          0.00999999	          0.24453015	          0.38588422	          0.02733954	          0.19219801	          0.14913152	          0.00999999	          0.00999999	          0.38783759	          0.15603015	          0.18849904	          0.03902668	          0.14614271	          0.00999999	          0.00999999	          0.01653467	          0.01398288	          0.58788186	
          0.55842874	         -7.21160306	          1.49931720	         -6.47249924	          0.78480598	          0.91738440	          0.00980010	        -12.53576482	         -1.50870573	         -3.56216863	        -11.38547967	          5.86960633	         38.59875939	         34.68538116	         -1.01291439	         -8.43167896	         -9.43783202	          1.09056555	          0.22078781	         -6.13299945	         -1.17150173	          9.19926450	          0.21207175	          0.00999999	          0.00999999	          0.05280928	          0.01182492	          0.02759262	          0.22643690	          0.01398288	          0.71338135	          0.00999999	          0.00999999	          0.20679204	          0.35365488	          0.02312025	          0.16253627	          0.12611619	          0.00999999	          0.01713459	          0.32798297	          0.14508995	          0.15940816	          0.15922111	          0.12358864	          0.00999999	          0.00999999	          0.01398289	          0.01182492	          0.64767567	
          0.56937832	         -7.21870402	          1.58219445	         -6.49641009	          0.80344185	          0.91581824	          0.00927788	        -12.67844164	         -1.80863687	         -3.93515182	        -13.01531980	          4.42966691	         40.78679491	         34.71354855	         -0.88625342	         -8.18345423	        -11.51721569	          0.76648209	          0.20343895	         -5.83297039	         -1.60185721	          9.57715704	          0.21436022	          0.00999999	          0.00999999	          0.04465927	          0.00999999	          0.02333427	          0.21436453	          0.01182492	          0.71364208	          0.00999999	          0.00999999	          0.17487801	          0.29907565	          0.01955212	          0.17034693	          0.10665279	          0.00999999	          0.10604677	          0.34494186	          0.12716920	          0.13480685	          0.19487835	          0.10451532	          0.00999999	          0.00999999	          0.01182492	          0.00999999	          0.71899073	
          0.58032790	         -7.20364615	          1.65897697	         -6.48283969	          0.82213490	          0.91461201	          0.00861275	        -12.55754844	         -2.13201171	         -4.32527644	        -15.12941570	          2.81027591	         42.90256690	         34.67722999	         -0.75452157	         -8.03931819	        -13.49714342	          0.33111350	          0.17340847	         -5.55329287	         -2.01450668	          9.89783044	          0.25358925	          0.00999999	          0.00999999	          0.03776705	          0.00999999	          0.01973312	          0.20182523	          0.00999999	          0.61278584	          0.00999999	          0.00999999	          0.14788925	          0.25291958	          0.01653466	          0.19028959	          0.09019317	          0.00999999	          0.16254169	          0.39677409	          0.11207397	          0.11400223	          0.29046440	          0.08838557	          0.00999999	          0.01777092	          0.00999999	          0.00999999	          0.75258485	
          0.59127748	         -7.16708239	          1.73709507	         -6.43842790	          0.84072854	          0.91384450	          0.00782408	        -12.12649800	         -2.49412728	         -4.72371330	        -17.78100961	          1.01602354	         44.75954541	         34.64472617	         -0.61461520	         -7.95458793	        -15.55374874	          0.16013428	          0.12842865	         -5.30446033	         -2.41859350	         10.16008325	          0.29455034	          0.00999999	          0.00999999	          0.03193850	          0.03341455	          0.05300106	          0.19708186	          0.00999999	          0.51821517	          0.00999999	          0.00999999	          0.12506564	          0.21388674	          0.01398288	          0.18522232	          0.07627374	          0.00999999	          0.21173441	          0.38716885	          0.10195732	          0.09640837	          0.30739497	          0.07474511	          0.00999999	          0.09550187	          0.00999999	          0.00999999	          0.78475587	
          0.60222707	         -7.11335447	          1.82578146	         -6.36840908	          0.85909505	          0.91363441	          0.00692899	        -11.35546628	         -2.91057354	         -5.13835370	        -20.98869995	         -0.89125902	         45.96589309	         34.58361860	         -0.44684636	         -7.87828876	        -17.62094289	          0.35945153	          0.08822508	         -5.09030966	         -2.82265923	         10.36474562	          0.30907113	          0.00999999	          0.00999999	          0.02700946	          0.10021156	          0.05446306	          0.16666640	          0.00999999	          0.43823951	          0.00999999	          0.00999999	          0.10576438	          0.18087780	          0.01182492	          0.18344964	          0.06450248	          0.00999999	          0.25003969	          0.39175498	          0.09417277	          0.08152976	          0.27035203	          0.06320976	          0.00999999	          0.17990238	          0.00999999	          0.00999999	          0.74500683	
          0.61317665	         -7.04872581	          1.91841620	         -6.27452255	          0.87715524	          0.91408886	          0.00595811	        -10.22972247	         -3.38117505	         -5.57696085	        -24.74739625	         -2.87022080	         46.14452426	         34.40298806	         -0.24034443	         -7.77532432	        -19.53016930	          1.00998295	          0.08559012	         -4.91155379	         -3.21958155	         10.51131545	          0.31993052	          0.00999999	          0.00999999	          0.02284111	          0.18198737	          0.07368141	          0.14094493	          0.00999999	          0.37060641	          0.00999999	          0.00999999	          0.08944186	          0.15296310	          0.00999999	          0.16170568	          0.05454788	          0.00999999	          0.27611025	          0.36193153	          0.08662939	          0.06894735	          0.22862885	          0.05345466	          0.00999999	          0.28675497	          0.00999999	          0.00999999	          0.64828164	
          0.62412623	         -6.98063687	          2.00297542	         -6.15422758	          0.89482366	          0.91531886	          0.00494581	         -8.75661271	         -3.89642050	         -6.03991824	        -28.93865033	         -5.13181397	         45.35757407	         33.99582341	          0.00383567	         -7.65220632	        -21.06093234	          2.04517760	          0.22965154	         -4.77242524	         -3.59726811	         10.59772577	          0.31292340	          0.00999999	          0.00999999	          0.01931607	          0.25409343	          0.06320976	          0.14060181	          0.00999999	          0.31341107	          0.00999999	          0.00999999	          0.07563838	          0.12935644	          0.00999999	          0.13674979	          0.04612955	          0.00999999	          0.28810454	          0.32201146	          0.08577573	          0.05830677	          0.19334478	          0.04520505	          0.00999999	          0.34116090	          0.00999999	          0.00999999	          0.54823294	
          0.63507582	         -6.91510969	          2.06174452	         -6.00644490	          0.91200835	          0.91734388	          0.00392194	         -6.96635828	         -4.43918460	         -6.51797316	        -33.42500535	         -7.67619523	         43.41849744	         33.32696628	          0.26848637	         -7.50751985	        -22.08993374	          3.19811214	          0.55344671	         -4.68190827	         -3.93746978	         10.62490262	          0.29949451	          0.00999999	          0.00999999	          0.01633504	          0.29963745	          0.05345466	          0.11890288	          0.00999999	          0.26504263	          0.00999999	          0.00999999	          0.06396518	          0.10939298	          0.05691832	          0.11564532	          0.03901042	          0.00999999	          0.28926656	          0.28145683	          0.08575539	          0.04930834	          0.16350606	          0.03822860	          0.00999999	          0.35584686	          0.00999999	          0.00999999	          0.46362466	
          0.64602540	         -6.85477448	          2.08357868	         -5.83397753	          0.92865035	          0.92004155	          0.00291755	         -4.93081306	         -4.98890981	         -6.96860374	        -38.08374081	        -10.06231763	         39.85156300	         32.43189222	          0.53152428	         -7.33712199	        -22.63296203	          4.24117822	          0.98994112	         -4.64705226	         -4.22910792	         10.59574970	          0.30311363	          0.03910702	          0.00999999	          0.01381406	          0.25339468	          0.04520505	          0.10348877	          0.00999999	          0.22413885	          0.00999999	          0.00999999	          0.05409349	          0.09251047	          0.23445447	          0.09779789	          0.03298998	          0.00999999	          0.28290173	          0.23801986	          0.09135923	          0.04169863	          0.13827232	          0.03232881	          0.00999999	          0.35594948	          0.00999999	          0.00999999	          0.39207391	
